*******************************************************************************
 Cowboys And Aliens.2011.PPVRip- SiNiSTER
*******************************************************************************
-------------------------------------------------------------------------------
 General Information
------------------------------------------------------------------------------- 
http://www.pix2links.com/image/0TQ7j.jpg
Format : AVI
Format/Info : Audio Video Interleave
File size : 1.37 GiB
Duration : 1h 58mn
Overall bit rate : 1 667 Kbps
Writing library : VirtualDub build 32839/release
Video
ID : 0
Format : MPEG-4 Visual
Format profile : Advanced Simple@L5
Format settings, BVOP : Yes
Format settings, QPel : Yes
Format settings, GMC : 3 warppoints
Format settings, Matrix : Default (H.263)
Muxing mode : Packed bitstream
Codec ID : XVID
Codec ID/Hint : XviD
Duration : 1h 58mn
Bit rate : 1 525 Kbps
Width : 628 pixels
Height : 472 pixels
Display aspect ratio : 4:3
Frame rate : 29.970 fps
Color space : YUV
Chroma subsampling : 4:2:0
Bit depth : 8 bits
Scan type : Progressive
Bits/(Pixel*Frame) : 0.172
Stream size : 1.26 GiB (92%)
Writing library : XviD 64
Audio
ID : 1
Format : MPEG Audio
Format version : Version 1
Format profile : Layer 3
Mode : Joint stereo
Mode extension : MS Stereo
Codec ID : 55
Codec ID/Hint : MP3
Duration : 1h 58mn
Bit rate mode : Constant
Bit rate : 128 Kbps
Channel(s) : 2 channels
Sampling rate : 44.1 KHz
Stream size : 108 MiB (8%)
Alignment : Aligned on interleaves
Interleave, duration : 26 ms (0.78 video frame)
Interleave, preload duration : 522 ms
Writing library : LAME3.98.2
Video Source: IFLIX.....thanks 
Audio Source: IFLIX.....thanks
Greets:
DarkScene,HDScene,Noir,CrEwSaDe,blackjesus,ViSiON,HDLiTE,UnKnOwN,IMAGiNE,
FLAWL3SS,Rx,ELEKTRI4KA,CiNEDUB,BDK,SAFCuk009,HiVE-CM8..... and everybody else we 
respect.. u know who u are
-------------------------------------------------------------------------------
 Post Information
-------------------------------------------------------------------------------
Encoded by...........: SiNiSTER
 
Have sumthing to offer..looking for suppliers... cammers,cams,screeners, audio
supplier.. and any pre retail DVD/BR any RC...if u can provide any email us at
sinister@hushmail.me
-------------------------------------------------------------------------------
 Release Notes
-------------------------------------------------------------------------------
source was what u expect from a PPVRip.. i ran it thru several denoisers,smoothers
and degrainers. then it was onto the RGB, white balance,hue, saturation, contrast,
levels and brightness and sharpened it up sum... its still kinda dark but very 
watchable... enjoy
-------------------------------------------------------------------------------
 ScreenShots
------------------------------------------------------------------------------- 
http://www.pix2links.com/image/kz13.png 
http://www.pix2links.com/image/e7tl4.png 
http://www.pix2links.com/image/hV1FK.png 
http://www.pix2links.com/image/7GvAN.png 
http://www.pix2links.com/image/nT9QE.jpg
-------------------------------------------------------------------------------
[img]http://leetleech.org/images/33506450373550172140.gif[/img]
-------------------------------------------------------------------------------
Generated with Cool NFO Creator - http://fly.to/coolbeans
------------------------------------------------------------------------------- 
http://www.pix2links.com/images/33502453931372952618.gif